<svg width="496" height="144" viewBox="0 0 496 144" fill="none" xmlns="http://www.w3.org/2000/svg">
  <title>МусорОК</title>
  <defs>
    <linearGradient id="markGradient" x1="22" y1="18" x2="122" y2="126" gradientUnits="userSpaceOnUse">
      <stop offset="0" stop-color="#35D07F"/>
      <stop offset="0.52" stop-color="#B6F060"/>
      <stop offset="1" stop-color="#F5D35F"/>
    </linearGradient>
    <filter id="softShadow" x="0" y="0" width="148" height="148" color-interpolation-filters="sRGB">
      <feDropShadow dx="0" dy="16" stdDeviation="12" flood-color="#000000" flood-opacity="0.25"/>
    </filter>
  </defs>

  <g filter="url(#softShadow)">
    <path d="M26 36C26 26.0589 34.0589 18 44 18H104C113.941 18 122 26.0589 122 36V108C122 117.941 113.941 126 104 126H44C34.0589 126 26 117.941 26 108V36Z" fill="url(#markGradient)"/>
    <path d="M51 52H97L92.9412 104.765C92.58 109.461 88.6637 113.087 83.954 113.087H64.046C59.3363 113.087 55.42 109.461 55.0588 104.765L51 52Z" fill="#07130F"/>
    <path d="M61 44C61 39.5817 64.5817 36 69 36H79C83.4183 36 87 39.5817 87 44V48H61V44Z" fill="#07130F"/>
    <path d="M45 48H103" stroke="#07130F" stroke-width="9" stroke-linecap="round"/>
    <path d="M60 79L70.5 89.5L91 66" stroke="#F8FFF4" stroke-width="9" stroke-linecap="round" stroke-linejoin="round"/>
  </g>

  <text x="150" y="79" fill="#F8FFF4" font-family="Arial, Helvetica, sans-serif" font-size="54" font-weight="900">Мусор<tspan fill="#F5D35F">ОК</tspan></text>
  <text x="153" y="112" fill="#C7F9D8" font-family="Arial, Helvetica, sans-serif" font-size="20" font-weight="700">скоро в Краснодаре</text>
</svg>
